<svg xmlns="http://www.w3.org/2000/svg" viewBox="0 0 256 256" role="img" aria-label="Terminal Tiles logo">
  <defs>
    <linearGradient id="bg" x1="36" y1="28" x2="222" y2="230" gradientUnits="userSpaceOnUse">
      <stop offset="0" stop-color="#111827"/>
      <stop offset="0.52" stop-color="#1f2937"/>
      <stop offset="1" stop-color="#0b1120"/>
    </linearGradient>
    <linearGradient id="accent" x1="56" y1="48" x2="210" y2="206" gradientUnits="userSpaceOnUse">
      <stop offset="0" stop-color="#8fbcbb"/>
      <stop offset="0.45" stop-color="#88c0d0"/>
      <stop offset="1" stop-color="#81a1c1"/>
    </linearGradient>
    <linearGradient id="warm" x1="142" y1="54" x2="212" y2="200" gradientUnits="userSpaceOnUse">
      <stop offset="0" stop-color="#ebcb8b"/>
      <stop offset="1" stop-color="#b48ead"/>
    </linearGradient>
    <filter id="shadow" x="-20%" y="-20%" width="140%" height="140%">
      <feDropShadow dx="0" dy="14" stdDeviation="18" flood-color="#000000" flood-opacity="0.36"/>
    </filter>
  </defs>
  <rect x="22" y="22" width="212" height="212" rx="48" fill="url(#bg)" filter="url(#shadow)"/>
  <rect x="48" y="50" width="160" height="156" rx="18" fill="#0f172a" stroke="#3b4252" stroke-width="6"/>
  <rect x="48" y="50" width="160" height="32" rx="18" fill="#243041"/>
  <rect x="48" y="68" width="160" height="14" fill="#243041"/>
  <circle cx="69" cy="66" r="5" fill="#bf616a"/>
  <circle cx="88" cy="66" r="5" fill="#ebcb8b"/>
  <circle cx="107" cy="66" r="5" fill="#a3be8c"/>
  <path d="M75 115l24 20-24 20" fill="none" stroke="url(#accent)" stroke-width="13" stroke-linecap="round" stroke-linejoin="round"/>
  <path d="M116 158h46" fill="none" stroke="#d8dee9" stroke-width="13" stroke-linecap="round"/>
  <path d="M143 96h46v46h-46z" fill="none" stroke="url(#warm)" stroke-width="10" stroke-linejoin="round"/>
  <path d="M143 142h46v46h-46z" fill="none" stroke="#5e81ac" stroke-width="10" stroke-linejoin="round"/>
  <path d="M97 96h46v92h-46z" fill="none" stroke="#4c566a" stroke-width="10" stroke-linejoin="round"/>
</svg>
